SplineFontDB: 3.2
FontName: Nak'Moshra-Archaic
FullName: Nak'Moshra-Archaic
FamilyName: Nak'Moshra
Weight: Regular
Copyright: Copyright (c) 2023, kroonhorstdino
Version: 001.100
ItalicAngle: 0
UnderlinePosition: -101
UnderlineWidth: 51
Ascent: 819
Descent: 205
InvalidEm: 0
sfntRevision: 0x00010000
LayerCount: 2
Layer: 0 0 "Back" 1
Layer: 1 0 "Fore" 0
XUID: [1021 386 -561932103 13392936]
StyleMap: 0x0040
FSType: 0
OS2Version: 4
OS2_WeightWidthSlopeOnly: 0
OS2_UseTypoMetrics: 1
CreationTime: 1686858542
ModificationTime: 1686928385
PfmFamily: 17
TTFWeight: 400
TTFWidth: 5
LineGap: 92
VLineGap: 0
Panose: 2 0 5 3 0 0 0 0 0 0
OS2TypoAscent: 819
OS2TypoAOffset: 0
OS2TypoDescent: -205
OS2TypoDOffset: 0
OS2TypoLinegap: 92
OS2WinAscent: 819
OS2WinAOffset: 0
OS2WinDescent: 205
OS2WinDOffset: 0
HheadAscent: 819
HheadAOffset: 0
HheadDescent: -205
HheadDOffset: 0
OS2SubXSize: 665
OS2SubYSize: 716
OS2SubXOff: 0
OS2SubYOff: 143
OS2SupXSize: 665
OS2SupYSize: 716
OS2SupXOff: 0
OS2SupYOff: 491
OS2StrikeYSize: 51
OS2StrikeYPos: 265
OS2CapHeight: 717
OS2XHeight: 809
OS2Vendor: 'PfEd'
OS2CodePages: 00000001.00000000
OS2UnicodeRanges: 00000001.00000000.00000000.00000000
Lookup: 2 0 0 "ccmp decomposition" { "ccmp decomposition-1"  } ['ccmp' ('DFLT' <'dflt' > 'latn' <'dflt' > 'latn' <'DEU ' > ) ]
Lookup: 4 0 1 "liga" { "liga-1"  } ['liga' ('DFLT' <'dflt' > 'latn' <'dflt' > ) ]
MarkAttachClasses: 1
DEI: 91125
LangName: 1033 "" "" "" "FontForge 2.0 : Nak'Moshra-Archaic : 15-6-2023" "" "Version 001.100"
Encoding: ISO8859-1
UnicodeInterp: none
NameList: AGL For New Fonts
DisplaySize: -128
AntiAlias: 1
FitToEm: 0
WinInfo: 56 14 6
BeginPrivate: 7
BlueValues 26 [-104 153 364 661 700 800]
BlueScale 10 0.00416667
BlueShift 2 10
StdHW 4 [21]
StdVW 4 [24]
StemSnapH 30 [2 10 16 21 30 35 44 60 67 86]
StemSnapV 19 [24 29 34 47 62 72]
EndPrivate

StartChar: .notdef
Encoding: 256 -1 0
Width: 500
VWidth: 1000
GlyphClass: 1
Flags: HMW
HStem: 0 55<110 440 110 495> 531 55<110 440 110 110>
VStem: 55 55<55 55 55 531> 440 55<55 531 531 531>
LayerCount: 2
Fore
SplineSet
55 0 m 1
 55 586 l 1
 495 586 l 1
 495 0 l 1
 55 0 l 1
110 55 m 1
 440 55 l 1
 440 531 l 1
 110 531 l 1
 110 55 l 1
EndSplineSet
Validated: 1
EndChar

StartChar: a
Encoding: 97 97 27
Width: 596
VWidth: 1000
GlyphClass: 1
Flags: HMW
HStem: -110 23G<316 319> 704 22G<-221 -220> 768 0<-252 -252 -234 -234 -187 -187>
LayerCount: 2
Fore
SplineSet
451 21 m 0
 418 46 377 82 361 102 c 0
 345 122 313 155 292 178 c 2
 255 220 l 1
 262 228 l 2
 271 238 277 238 289 227 c 0
 295 221 330 197 367 172 c 2
 436 124 l 1
 453 99 l 2
 474 69 515 -12 515 -21 c 2
 515 -22 l 1
 511 -22 483 -4 451 21 c 0
25 16 m 2
 25 39 83 125 123 158 c 0
 212 232 228 242 239 242 c 2
 252 242 l 1
 236 220 l 2
 229 208 206 171 182 138 c 2
 139 77 l 1
 97 52 l 2
 74 39 50 21 41 18 c 2
 25 10 l 1
 25 16 l 2
224 255 m 0
 218 259 203 302 185 352 c 0
 167 402 137 486 117 542 c 0
 98 595 84 643 84 646 c 1
 86 646 106 611 129 566 c 0
 202 423 239 349 243 345 c 1
 245 345 l 2
 249 345 272 370 298 403 c 0
 361 481 422 548 462 581 c 2
 493 606 l 1
 477 609 l 2
 468 611 399 621 322 632 c 0
 155 657 65 674 59 680 c 0
 59 681 66 680 74 680 c 2
 111 680 l 2
 141 680 263 668 383 668 c 0
 503 668 606 655 613 653 c 0
 625 649 630 638 630 628 c 0
 630 613 621 594 600 584 c 0
 522 544 453 481 334 340 c 0
 274 270 253 248 240 248 c 0
 234 248 230 251 224 255 c 0
EndSplineSet
Validated: 1
EndChar

StartChar: b
Encoding: 98 98 28
Width: 537
VWidth: 1000
GlyphClass: 1
Flags: HMW
HStem: 530 142<270 349> 625 22G<535 538>
VStem: 185 51<595 618 595 707> 196 158<284 340 241 366> 272 68<47 130 47 208> 272 81<32 262 208 262> 283 80<463 464 463 476>
LayerCount: 2
Fore
SplineSet
290 -186 m 0x48
 284 -163 272 -65 272 32 c 2
 272 208 l 1
 249 208 l 2
 245 207 238 207 235 207 c 0x64
 202 207 196 230 196 338 c 0x50
 196 396 193 447 190 450 c 2
 189 450 l 2
 182 450 153 429 122 405 c 0
 91 380 64 362 60 362 c 2
 59 362 l 1
 59 368 85 404 121 447 c 2
 185 528 l 1
 185 707 l 2
 185 774 183 821 183 849 c 0
 183 870 185 880 186 880 c 2
 187 880 l 1
 194 873 235 634 235 603 c 0
 235 588 247 594 260 616 c 0
 283 654 306 672 330 672 c 0
 368 672 370 652 370 565 c 2
 370 551 l 2
 370 507 363 471 363 464 c 2
 363 463 l 1xa2
 365 463 405 505 450 556 c 0
 503 614 531 647 537 647 c 0
 538 647 538 646 538 645 c 0
 538 636 504 578 431 462 c 2
 353 340 l 1
 353 262 l 2x50
 353 219 341 151 341 110 c 0
 341 -13 313 -204 306 -217 c 0
 305 -219 303 -220 302 -220 c 0
 299 -220 296 -209 290 -186 c 0x48
283 446 m 0x82
 283 506 280 530 271 530 c 0
 268 530 264 527 258 520 c 0
 254 516 253 509 253 496 c 0
 253 483 254 464 258 434 c 0
 264 393 272 360 275 360 c 0
 278 360 283 399 283 446 c 0x82
EndSplineSet
Validated: 1
EndChar

StartChar: c
Encoding: 99 99 29
Width: 896
VWidth: 1000
GlyphClass: 1
Flags: HMW
HStem: 579 22G<447 447>
LayerCount: 2
Fore
SplineSet
808 -65 m 0
 742 -31 692 7 527 140 c 0
 451 200 386 247 382 245 c 0
 378 243 340 202 298 154 c 0
 256 106 219 68 217 70 c 0
 217 80 338 321 352 339 c 0
 356 345 372 348 384 348 c 2
 405 348 l 1
 434 323 l 2
 449 310 532 240 614 167 c 0
 768 33 882 -74 882 -85 c 0
 882 -89 880 -90 874 -90 c 0
 863 -90 841 -83 808 -65 c 0
861 99 m 0
 840 112 738 209 634 316 c 2
 443 508 l 1
 428 497 l 2
 419 490 341 421 257 342 c 0
 173 263 89 185 69 167 c 0
 46 146 29 136 26 136 c 1
 26 137 28 141 31 145 c 0
 62 186 148 291 207 360 c 0
 247 406 303 486 346 528 c 2
 410 591 l 2
 419 597 423 599 447 601 c 1
 476 597 l 1
 503 572 l 2
 571 507 846 147 881 111 c 0
 921 69 914 66 861 99 c 0
EndSplineSet
Validated: 33
EndChar

StartChar: d
Encoding: 100 100 30
Width: 744
VWidth: 1000
GlyphClass: 1
Flags: HMW
HStem: 696 23G
VStem: 295 19<669 697 697 698 623 723> 307 11<459 492> 327 10<40 55> 337 4
LayerCount: 2
Fore
SplineSet
-34 -106 m 0xc0
 -34 -93 75 9 206 116 c 0
 300 192 318 208 318 224 c 2
 318 229 l 2
 316 240 307 312 307 388 c 0xa0
 307 595 305 579 232 638 c 0
 174 685 144 710 144 716 c 0
 144 717 144 717 145 717 c 0
 149 717 169 709 201 688 c 0
 242 663 281 638 287 635 c 0
 288 634 289 634 290 634 c 0
 294 634 295 644 295 669 c 2
 295 697 l 2
 295 748 293 768 301 770 c 2
 302 770 l 2
 309 770 312 751 312 698 c 2
 312 623 l 1
 337 604 l 2
 372 578 644 403 700 371 c 0
 741 348 760 329 760 309 c 0
 760 299 756 289 745 277 c 0
 734 265 727 264 703 264 c 2
 663 264 l 1
 619 264 l 2
 594 264 580 263 548 249 c 0
 519 237 460 207 416 183 c 2
 337 139 l 1xc8
 337 40 l 1
 327 -59 l 1
 327 30 l 2
 327 80 320 121 318 123 c 0xb0
 316 125 305 120 295 112 c 0
 285 104 208 54 126 0 c 0
 44 -54 -26 -103 -29 -107 c 0
 -32 -113 -34 -112 -34 -106 c 0xc0
399 268 m 0
 435 294 487 328 515 341 c 0
 543 354 564 365 564 366 c 0
 564 370 333 559 327 559 c 0xb0
 325 559 318 531 318 497 c 0
 318 420 330 220 333 220 c 0
 334 220 363 242 399 268 c 0
337 -90 m 0x88
 337 -81 339 -79 341 -86 c 0
 343 -92 342 -98 340 -100 c 0
 338 -102 337 -99 337 -90 c 0x88
EndSplineSet
Validated: 33
EndChar

StartChar: e
Encoding: 101 101 31
Width: 926
VWidth: 1000
GlyphClass: 1
Flags: HMW
HStem: 438 23G
LayerCount: 2
Fore
SplineSet
235 23 m 1
 212 36 l 1
 147 154 l 2
 74 286 16 399 16 412.259007077 c 0
 16 414 17 416 18.5657519608 416 c 0
 36.4601547037 416 221.91916927 154.772747657 255 125 c 1
 271 109 l 1
 302 176 l 2
 393 371 429 442 439 451 c 1
 453 461 l 1
 446 430 l 2
 443 414 417 318 388 218 c 2
 336 36 l 1
 321 26 l 2
 312 20 293 14 280 12 c 2
 257 9 l 1
 235 23 l 1
885.755620823 165.494227263 m 0
 858 194 747 341 714.660621603 387.904501966 c 0
 664.249392933 461.02011802 642.659819813 527 638.534139451 527 c 0
 636 527 617.841530262 502.106761585 588.708098917 458.624028234 c 0
 530 371 459 274 453 274 c 1
 453 275 l 2
 453 294.841348645 598.448364515 594.345093544 613.405585133 637.311509292 c 0
 622 662 637 669 655.693334857 669 c 0
 673 669 688 663 695.655824399 647.050365834 c 0
 700 638 712 606 719.108241507 584.675275479 c 0
 762.587338171 454.237985486 913 152.656873003 913 148.351083632 c 0
 913 148 912 147 910.75 147 c 0
 907 147 895 156 885.755620823 165.494227263 c 0
EndSplineSet
Validated: 524289
EndChar

StartChar: f
Encoding: 102 102 32
Width: 772
VWidth: 1000
GlyphClass: 1
Flags: HMW
HStem: -110 23G<340 344> 549 11 560 7 749 22G<328 342 342 356 356 356>
VStem: 324 32<396 405 346 459> 329 28<675 679 679 770>
LayerCount: 2
Fore
SplineSet
359 -94 m 0xd8
 359 -71 351 218 350 227 c 0
 350 228 345 229 336 229 c 0
 317 229 284 227 248 227 c 2
 214 227 l 2
 168 227 151 226 151 234 c 0
 151 238 156 246 169 257 c 0
 206 290 241 308 293 321 c 2
 350 334 l 1
 350 396 l 1
 350 459 l 1
 327 464 l 2
 315 467 251 471 183 471 c 0
 115 471 47 476 34 480 c 2
 11 486 l 1
 38 498 l 2
 53 505 131 527 207 546 c 2
 354 581 l 1xd8
 354 675 l 1
 354 768 l 1
 367 768 l 1
 383 768 l 1
 383 679 l 1xd4
 383 587 l 1
 424 581 l 2
 444 578 504 574 559 574 c 0
 614 574 679 569 705 566 c 2
 755 560 l 1xb8
 711 549 l 2
 688 542 605 522 530 504 c 0
 455 486 392 468 389 465 c 0
 386 462 383 436 383 405 c 2
 383 346 l 1
 415 346 l 2
 434 346 483 353 525 361 c 0
 567 369 642 375 694 375 c 2
 789 375 l 1
 773 356 l 2
 764 346 726 323 690 304 c 2
 625 270 l 1
 512 255 l 2
 450 247 396 240 389 238 c 2
 376 233 l 1
 376 62 l 2
 376 -46 373 -110 367 -110 c 0
 361 -110 359 -103 359 -94 c 0xd8
EndSplineSet
Validated: 33
EndChar

StartChar: g
Encoding: 103 103 33
Width: 834
VWidth: 1000
GlyphClass: 1
Flags: HMW
HStem: 16 3 585 23G
VStem: 103 24 120 7<579 579> 793 19
LayerCount: 2
Fore
SplineSet
68 29 m 1xe8
 52 52 l 1
 56 75 l 2
 62 103 97 248 97 428 c 0xe8
 97 495 111 564 114 579 c 2
 121 607 l 1xd8
 121 547 l 2
 121 500 148 148 148 106 c 0
 148 100 161 93 180 91 c 0
 199 89 254 83 305 76 c 0
 515 48 691 23 694 20 c 0
 694 18 592 16 464 16 c 0
 335 16 197 11 157 11 c 2
 86 11 l 1
 68 29 l 1xe8
786 162 m 0
 779 177 766 252 755 330 c 0
 744 408 732 479 730 488 c 2
 726 506 l 1
 701 510 l 1
 414 561 282 588 282 594 c 1
 282 594 283 595 286 595 c 0
 348 595 779 592 791 585 c 0
 799 581 808 571 812 563 c 2
 821 549 l 1
 821 450 l 2
 821 396 804 302 804 243 c 0
 804 184 802 135 800 135 c 0
 798 135 793 147 786 162 c 0
EndSplineSet
Validated: 1
EndChar

StartChar: h
Encoding: 104 104 34
Width: 961
VWidth: 1000
GlyphClass: 1
Flags: HMW
HStem: 605 33<-57 -40> 612 36<36 89 36 102> 616 74<562 579 579 743 562 825> 620 48<198 299 233 297>
VStem: -32 68<755 860> -13 50<260 267 267 471> 299 26<669 744 744 750 750 823> 316 29
LayerCount: 2
Fore
SplineSet
586 -154 m 0x21
 576 -138 565 -29 565 185 c 0x21
 565 307 550 444 550 488 c 2
 548 569 l 1
 478 569 l 2x12
 440 569 387 560 361 560 c 2
 314 560 l 1
 314 250 l 1
 314 -59 l 1
 315 -66 l 1
 308 -70 299 -71 296 -68 c 0
 292 -64 270 96 270 392 c 0x46
 270 476 259 549 257 552 c 0
 256 553 251 553 240 553 c 0
 219 553 182 552 139 552 c 0
 69 552 33 560 33 568 c 0
 33 576 74 584 150 584 c 2
 255 584 l 1
 252 689 l 1
 252 793 l 1x88
 270 800 l 2x84
 273 801 275 801 279 801 c 0
 287 801 293 798 299 794 c 2
 314 784 l 1
 314 684 l 1
 314 593 l 1
 373 593 l 1x48
 491 612 l 1
 550 612 l 1
 550 684 l 1
 550 758 l 1
 562 754 l 1
 574 750 l 1
 574 679 l 1
 574 606 l 1x1a
 603 613 l 2
 615 616 697 630 786 630 c 2
 949 630 l 1
 982 607 l 2
 1001 595 1019 578 1021 574 c 2
 1023 563 l 1
 802 563 l 1
 580 563 l 1
 580 415 l 2
 580 329 588 166 588 52 c 0
 588 -76 591 -130 591 -150 c 0
 591 -157 592 -157 591 -157 c 0
 590 -157 588 -157 586 -154 c 0x21
EndSplineSet
Validated: 1
EndChar

StartChar: i
Encoding: 105 105 35
Width: 677
VWidth: 1000
GlyphClass: 1
Flags: HMW
HStem: -110 23G<282 285> 372 22G<44 50> 747 22G<309 309>
VStem: 35 23<385 386> 288 79<582 736>
LayerCount: 2
Fore
SplineSet
155 133 m 0
 89 266 35 380 35 384 c 0
 35 388 39 393 46 393 c 0
 53 393 57 391 57 388 c 0
 57 382 273 -88 283 -104 c 0
 285 -107 286 -110 283 -110 c 0
 280 -110 221 0 155 133 c 0
283 -52 m 0
 274 -24 273 247 273 366 c 0
 273 431 288 541 288 610 c 2
 288 736 l 1
 298 754 l 1
 309 768 l 1
 336 766 l 1
 363 766 l 1
 437 654 l 2
 582 440 674 315 693 306 c 2
 711 297 l 1
 694 297 l 1
 676 297 l 1
 628 342 l 2
 602 367 535 440 480 502 c 0
 425 564 377 614 374 614 c 0
 371 614 367 610 367 603 c 0
 367 562 343 278 333 204 c 0
 320 102 293 -61 290 -64 c 0
 289 -65 285 -60 283 -52 c 0
EndSplineSet
Validated: 1
EndChar

StartChar: k
Encoding: 107 107 37
Width: 578
VWidth: 1000
GlyphClass: 1
Flags: HMW
HStem: -110 23G<-92 -92> 8 4<208 217> 584 22G<244 253 253 253>
VStem: 228 25<349 528>
LayerCount: 2
Fore
SplineSet
-36 -102 m 1
 -44 -94 l 1
 33 0 l 2
 75 53 131 125 156 157 c 0
 204 219 234 251 244 251 c 0
 245 251 245 250 246 249 c 0
 247 248 248 246 248 244 c 0
 248 224 209 171 109 52 c 0
 44 -25 -15 -93 -21 -99 c 2
 -30 -110 l 1
 -36 -102 l 1
271 12 m 2
 271 12 270 13 270 15 c 0
 270 40 290 221 290 477 c 0
 290 536 293 598 293 604 c 0
 293 610 300 606 306 606 c 2
 316 606 l 1
 316 528 l 2
 316 485 314 388 314 312 c 0
 313 51 313 33 275 8 c 0
 273 7 272 10 271 12 c 2
348 366 m 0
 348 388 403 462 512 588 c 0
 626 721 670 770 679 770 c 2
 680 770 l 1
 680 767 l 2
 680 755 664 718 648 695 c 0
 611 642 427 414 408 398 c 0
 380 374 362 361 353 361 c 0
 350 361 348 363 348 366 c 0
EndSplineSet
Validated: 1
EndChar

StartChar: l
Encoding: 108 108 38
Width: 939
VWidth: 1000
GlyphClass: 1
Flags: HMW
HStem: 371 23<935 1003>
VStem: 1003 42<345 355 355 371 371 371>
LayerCount: 2
Fore
SplineSet
871 308 m 2
 870 361 l 1
 829 361 l 2
 769 361 599 354 475 354 c 0
 449 354 278 361 205 361 c 2
 54 361 l 1
 55 388 l 1
 55 400 l 1
 84 400 l 1
 117 400 l 2
 120 399 128 399 140 399 c 0
 196 399 341 404 520 405 c 0
 752 406 834 402 834 402 c 2
 920 402 l 1
 913 358 l 2
 910 338 884 304 874 304 c 0
 872 304 871 305 871 308 c 2
EndSplineSet
Validated: 33
EndChar

StartChar: m
Encoding: 109 109 39
Width: 875
VWidth: 1000
GlyphClass: 1
Flags: HMW
HStem: 396 23G
VStem: 483 79<597 779 779 779> 735 79
LayerCount: 2
Fore
SplineSet
720 -79 m 1
 706 -58 l 1
 714 -16 l 2
 730 57 732 213 732 383 c 2
 732 548 l 1
 757 622 l 2
 771 663 787 708 790 722 c 2
 796 748 l 1
 801 735 l 2
 803 727 811 719 818 713 c 2
 829 704 l 1
 829 620 l 1
 840 537 l 1
 824 438 l 2
 812 363 811 283 811 152 c 2
 811 25 l 1
 811 -78 l 1
 798 -90 l 2
 789 -97 771 -101 758 -101 c 2
 735 -101 l 1
 720 -79 l 1
468 -50 m 2
 452 -32 l 1
 461 41 l 2
 467 81 483 158 483 212 c 2
 483 310 l 1
 345 204 l 2
 269 145 194 87 181 76 c 0
 168 65 153 55 149 55 c 0
 143 55 140 56 140 59 c 0
 140 70 182 107 313 217 c 0
 331 231 366 261 392 284 c 0
 429 316 446 328 465 328 c 0
 467 328 471 327 474 327 c 0
 477 327 480 407 480 507 c 2
 480 689 l 1
 491 698 l 2
 497 704 507 710 515 710 c 0
 523 710 535 725 543 744 c 0
 551 763 562 779 569 779 c 2
 580 779 l 1
 569 768 l 1
 559 758 l 1
 559 360 l 1
 559 -40 l 1
 545 -53 l 2
 536 -62 523 -67 509 -67 c 0
 494 -67 478 -61 468 -50 c 2
10 167 m 0
 10 171 35 215 66 262 c 2
 124 349 l 1
 217 424 l 2
 269 466 323 503 335 509 c 0
 343 512 352 515 361 515 c 0
 374 515 383 511 383 507 c 0
 383 506 383 504 380 502 c 0
 376 499 334 445 289 385 c 2
 206 275 l 1
 120 218 l 2
 61 178 30 161 17 161 c 0
 13 161 10 163 10 167 c 0
EndSplineSet
Validated: 1
EndChar

StartChar: n
Encoding: 110 110 40
Width: 874
VWidth: 1000
GlyphClass: 1
Flags: HMW
HStem: 343 38<195 209 209 244 244 257> 350 23<564 574 574 606> 358 4 362 2 587 22G<246 266>
VStem: 822 37 853 18
LayerCount: 2
Fore
SplineSet
844 -37 m 0x0a
 840 -11 812 411 812 497 c 2
 812 544 l 1x0c
 824 559 l 2
 832 567 842 571 844 569 c 0x0a
 846 567 849 484 849 386 c 0x0c
 849 288 860 145 860 70 c 2
 860 -65 l 1
 856 -65 l 2
 850 -65 846 -51 844 -37 c 0x0a
610 3 m 0
 604 10 558 73 506 143 c 2
 411 270 l 1
 234 270 l 2
 136 270 44 256 32 254 c 0
 -9 246 -32 289 3 308 c 1
 20 308 l 1
 199 308 l 2x88
 298 308 380 300 382 302 c 0
 384 304 352 352 311 407 c 0
 241 504 226 536 250 536 c 0
 264 536 296 498 380 387 c 2
 442 299 l 1
 564 299 l 2x48
 630 299 689 297 693 296 c 0
 697 295 731 295 746 292 c 0x18
 765 292 768 289 781 289 c 1
 724 285 l 2x28
 693 283 625 277 578 277 c 0x48
 531 277 488 270 482 267 c 2
 472 261 l 1
 551 158 l 2
 595 101 631 53 632 51 c 0
 633 49 642 51 650 58 c 2
 663 68 l 1
 657 36 l 2
 654 18 649 2 647 -1 c 0
 641 -11 622 -9 610 3 c 0
EndSplineSet
Validated: 33
EndChar

StartChar: o
Encoding: 111 111 41
Width: 857
VWidth: 1000
GlyphClass: 1
Flags: HMW
VStem: 110 229<243 283>
LayerCount: 2
Fore
SplineSet
654 173 m 0
 617 177 599 194 592 228 c 0
 589 242 576 268 562 282 c 2
 534 309 l 1
 540 327 l 2
 543 337 553 344 562 344 c 0
 571 344 587 348 598 354 c 2
 619 363 l 1
 689 353 l 1
 759 343 l 1
 792 322 l 1
 824 301 l 1
 824 276 l 1
 824 251 l 1
 796 235 l 2
 782 227 762 212 751 202 c 0
 729 181 701 166 691 168 c 0
 688 169 670 171 654 173 c 0
69 218 m 2
 60 227 55 240 55 248 c 0
 55 268 112 370 132 388 c 0
 158 410 175 407 231 365 c 2
 284 328 l 1
 284 283 l 2
 284 259 280 234 276 227 c 0
 267 213 209 200 141 200 c 2
 89 200 l 1
 69 218 l 2
EndSplineSet
Validated: 33
EndChar

StartChar: p
Encoding: 112 112 42
Width: 960
VWidth: 1000
GlyphClass: 1
Flags: HMW
HStem: 230 6 593 18 612 15<400 410> 629 12<717 717> 652 22G<394 394>
VStem: 383 52 390 4 394 4
LayerCount: 2
Fore
SplineSet
393 -20 m 0xfc
 391 -13 385 136 383 305 c 0xfc
 381 474 367 603 365 605 c 0
 362 608 378 606 214 593 c 0
 181 591 43 592 43 596 c 0
 43 600 97 607 164 610 c 0
 231 613 308 619 336 622 c 2
 387 627 l 1
 390 654 l 1
 394 673 l 1xfa
 399 656 l 1xf9
 400 626 l 1
 457 632 l 2
 464 633 575 641 648 641 c 2
 781 641 l 1
 717 629 l 2
 676 622 606 617 543 614 c 0
 505 612 645 625 410 612 c 1
 410 573 l 2
 410 551 421 432 428 306 c 0
 435 180 438 51 435 25 c 2
 428 -25 l 1
 413 -38 l 2
 406 -44 395 -27 393 -20 c 0xfc
737 211 m 2
 614 230 l 1
 636 235 l 2
 648 238 710 243 774 246 c 2
 890 252 l 1
 907 240 l 1
 923 228 l 1
 913 211 l 2
 900 189 881 190 737 211 c 2
EndSplineSet
Validated: 33
EndChar

StartChar: q
Encoding: 113 113 43
Width: 849
VWidth: 1000
GlyphClass: 1
Flags: HMW
HStem: 72 7 265 95<561 570> 276 58 470 22G<173 173>
VStem: 162 16<476 479>
LayerCount: 2
Fore
SplineSet
59 15 m 0x98
 51 19 41 31 37 40 c 2
 29 55 l 1
 60 157 l 2
 78 213 106 306 122 363 c 0
 138 420 156 471 162 478 c 2
 173 491 l 1
 178 476 l 2
 181 468 173 383 160 285 c 0
 147 187 138 105 139 104 c 0
 141 102 443 82 540 78 c 0
 559 77 570 75 564 72 c 0
 551 65 381 43 261 32 c 0
 209 28 148 19 125 15 c 0
 74 5 77 5 59 15 c 0x98
866 22 m 0
 858 30 847 112 844 245 c 0
 838 469 819 554 849 540 c 0
 859 536 893 111 887 82 c 0
 886 78 869 19 866 22 c 0
473 276 m 0xb8
 353 296 345 300 343 314 c 0
 342 322 347 330 355 334 c 0xb8
 373 343 498 360 552 360 c 0
 607 360 749 298 727 284 c 0
 716 277 608 264 570 265 c 0xd8
 552 265 508 270 473 276 c 0xb8
EndSplineSet
Validated: 33
EndChar

StartChar: r
Encoding: 114 114 44
Width: 947
VWidth: 1000
GlyphClass: 1
Flags: HMW
HStem: -72 50 174 33<261 327> 441 29G<349 349>
VStem: 327 32<76 178 174 178> 341 7
LayerCount: 2
Fore
SplineSet
35 66 m 0xf0
 22 85 21 103 33 122 c 2
 41 138 l 1
 21 246 l 2
 -10 406 1 468 64 505 c 0
 107 528 141 534 250 528 c 2
 343 522 l 1
 337 515 l 2
 334 512 298 503 260 497 c 0
 153 481 129 472 109 449 c 0
 87 420 84 416 112 390 c 0
 140 364 139 343 116 324 c 2
 98 310 l 1
 112 244 l 2
 121 207 129 166 129 154 c 2
 129 133 l 1
 145 130 l 2
 173 124 396 92 436 91 c 2
 464 90 l 1
 464 173 l 1
 464 254 l 1xf0
 376 254 l 1
 288 254 l 1
 286 262 l 2
 283 273 332 280 409 280 c 2
 468 280 l 1
 469 344 l 2
 469 379 473 431 476 454 c 2
 482 498 l 1xe8
 483 462 l 2
 484 442 485 393 487 352 c 2
 493 280 l 1
 723 282 l 2
 851 283 958 278 962 276 c 0
 966 274 971 264 971 255 c 0
 971 245 969 244 966 248 c 2
 960 256 l 1
 871 258 l 2
 823 259 718 261 637 260 c 2
 491 257 l 1
 495 200 l 2
 497 168 502 124 505 102 c 0
 508 80 509 59 508 58 c 0
 507 57 498 60 487 67 c 2
 468 81 l 1
 452 72 l 2
 440 66 198 52 66 51 c 0
 54 51 42 56 35 66 c 0xf0
EndSplineSet
Validated: 33
EndChar

StartChar: s
Encoding: 115 115 45
Width: 656
VWidth: 1000
GlyphClass: 1
Flags: HMW
HStem: 439 23G<310 310>
LayerCount: 2
Fore
SplineSet
328 -75 m 0
 319 -60 260 74 196 222 c 0
 132 370 73 504 64 518 c 0
 45 547 25 599 25 624 c 0
 25 646 45 643 57 620 c 0
 132 479 332 112 343 94 c 2
 359 69 l 1
 375 103 l 2
 384 122 434 237 487 358 c 0
 578 569 653 733 660 733 c 0
 663 733 605 548 550 386 c 0
 528 321 485 192 454 96 c 0
 423 0 394 -83 387 -90 c 0
 367 -111 344 -105 328 -75 c 0
292 426 m 2
 274 450 277 466 307 520 c 0
 319 542 325 563 323 573 c 0
 317 594 336 637 356 646 c 0
 378 656 403 626 415 585 c 2
 419 571 l 1
 427 547 l 1
 429 540 l 1
 429 532 l 1
 429 529 l 1
 433 496 l 1
 438 462 l 1
 425 439 l 1
 411 418 l 1
 360 410 l 1
 307 404 l 1
 292 426 l 2
EndSplineSet
Validated: 33
EndChar

StartChar: t
Encoding: 116 116 46
Width: 931
VWidth: 1000
GlyphClass: 1
Flags: HMW
HStem: -41 4 241 29 262 2
VStem: 53 56<431 460> 90 38
LayerCount: 2
Fore
SplineSet
150 -34 m 0xc8
 137 -19 90 192 90 236 c 2
 90 250 l 1xc8
 72 254 l 2
 62 256 51 260 50 262 c 0
 49 264 54 265 62 264 c 0
 70 263 77 263 79 266 c 0
 81 269 77 310 68 355 c 0
 59 400 53 443 53 451 c 0
 53 469 71 479 94 472 c 2
 111 466 l 1
 109 431 l 2xb0
 108 411 110 368 114 333 c 2
 122 270 l 1
 177 265 l 2
 230 261 439 262 734 271 c 0
 809 273 831 267 829 265 c 0
 820 257 705 224 607 216 c 0
 500 208 377 201 183 234 c 0
 154 240 131 243 129 241 c 0
 126 238 155 17 163 -12 c 2
 167 -30 l 1
 183 -33 l 1
 197 -36 l 1
 186 -41 l 2
 168 -48 160 -46 150 -34 c 0xc8
920 68 m 0
 916 108 901 210 892 285 c 0
 873 450 871 523 881 495 c 0
 883 488 940 86 932 33 c 0
 931 25 931 11 928 11 c 0
 925 11 924 28 920 68 c 0
EndSplineSet
Validated: 33
EndChar

StartChar: u
Encoding: 117 117 47
Width: 724
VWidth: 1000
GlyphClass: 1
Flags: HMW
HStem: 419 22G<118 170 170 210>
LayerCount: 2
Fore
SplineSet
598 -37 m 2
 583 -20 l 1
 588 79 l 2
 590 134 596 251 598 339 c 0
 607 610 616 676 639 622 c 0
 647 604 666 402 692 47 c 2
 697 -30 l 1
 680 -42 l 2
 656 -60 617 -57 598 -37 c 2
195 144 m 0
 159 164 89 225 70 254 c 2
 55 277 l 1
 77 340 l 2
 89 375 102 412 108 422 c 2
 118 440 l 1
 170 440 l 2
 248 440 340 417 398 384 c 0
 462 348 484 326 484 301 c 0
 484 277 381 169 336 146 c 0
 295 125 232 124 195 144 c 0
EndSplineSet
Validated: 33
EndChar

StartChar: v
Encoding: 118 118 48
Width: 1018
VWidth: 1000
GlyphClass: 1
Flags: HMW
HStem: 370 25 454 23G<-62 -62>
VStem: 917 23
LayerCount: 2
Fore
SplineSet
931 -36 m 0
 927 -29 920 91 917 232 c 0
 914 373 908 535 906 593 c 0
 904 651 905 705 911 713 c 2
 920 727 l 1
 948 719 l 1
 977 713 l 1
 970 690 l 2
 964 669 947 309 940 46 c 0
 939 -6 935 -43 931 -36 c 0
-3 378 m 0
 -13 399 -20 436 -20 443 c 2
 -20 454 l 1
 72 448 l 2
 123 444 257 437 367 426 c 0
 477 415 701 407 780 395 c 0
 890 377 808 370 805 370 c 2
 304 381 l 1
 35 404 l 1
 66 332 l 2
 80 298 16 338 -3 378 c 0
EndSplineSet
Validated: 33
EndChar

StartChar: w
Encoding: 119 119 49
Width: 1018
VWidth: 1000
GlyphClass: 1
Flags: HMW
HStem: 138 13 142 51 148 63 167 3 170 7 318 24 327 66 360 11 495 22G<981 981>
VStem: 977 4 981 3
LayerCount: 2
Fore
SplineSet
-8 144 m 2x8080
 -6 147 8 151 21 151 c 0
 34 151 53 154 62 156 c 2
 77 161 l 1
 47 162 l 2
 29 163 0 165 -19 167 c 2
 -53 170 l 1x9080
 35 177 l 2x0880
 83 181 193 188 279 192 c 0x4080
 365 196 467 205 507 208 c 0
 547 211 585 212 593 210 c 0
 616 204 618 155 596 148 c 0x2080
 590 147 452 144 288 142 c 2x4080
 -12 138 l 1
 -8 144 l 2x8080
945 152 m 2
 936 163 l 1
 942 212 l 2
 945 240 953 312 960 374 c 0
 967 436 975 491 977 500 c 2
 981 517 l 1x00c0
 984 491 l 2x00a0
 986 477 989 443 990 415 c 0
 992 387 996 318 999 263 c 2
 1006 163 l 1
 996 152 l 2
 983 138 958 138 945 152 c 2
229 318 m 0x0480
 222 319 216 324 216 326 c 0
 216 333 231 335 310 343 c 0
 384 351 393 360 328 360 c 0
 306 360 290 362 290 365 c 0
 290 368 293 371 297 371 c 0x0580
 306 371 660 386 776 392 c 2x0280
 861 395 l 1
 870 385 l 2
 874 379 878 368 878 359 c 2
 878 343 l 1x0480
 864 334 l 1
 851 327 l 1x0280
 578 323 l 2
 427 321 291 319 273 318 c 0
 255 317 236 317 229 318 c 0x0480
EndSplineSet
Validated: 33
EndChar

StartChar: x
Encoding: 120 120 50
Width: 986
VWidth: 1000
GlyphClass: 1
Flags: HMW
HStem: 282 95<553 598 598 627 553 553> 297 66<367 376> 317 30<28 70 57 70 57 122> 351 19<1070 1071 1046 1100 1070 1070> 524 22G<355 361>
VStem: 323 24 323 34<37 201 132 141> 342 25<440 449 362 480> 485 68<266 273 273 282> 499 53<433 455 376 498>
LayerCount: 2
Fore
SplineSet
478 19 m 2x8880
 465 32 l 1
 469 59 l 2
 476 106 485 235 485 266 c 2
 485 273 l 1
 485 285 l 1
 427 293 l 2
 406 296 387 297 376 297 c 0
 370 297 367 298 366 297 c 0
 364 295 358 235 358 166 c 0x4a80
 358 97 351 38 348 35 c 0x4c
 345 32 337 31 331 33 c 2
 323 37 l 1
 323 119 l 2
 323 163 336 222 336 251 c 2
 336 301 l 1
 320 301 l 2
 300 301 169 317 122 317 c 2
 55 317 l 2
 0 317 0 327 0 330 c 0
 0 345 50 346 65 346 c 0x2a
 78 346 106 353 129 361 c 2
 170 374 l 1
 224 374 l 2
 254 374 291 371 306 368 c 2
 334 363 l 1
 338 376 l 2x8a
 339 384 342 422 342 460 c 0
 342 498 348 534 350 538 c 0
 352 542 354 544 356 544 c 0
 364 544 367 514 367 449 c 2
 367 362 l 1
 427 362 l 2x49
 460 362 487 366 488 367 c 0
 489 368 499 409 499 456 c 0
 499 540 506 556 516 556 c 0
 518 556 520 555 522 554 c 2
 534 550 l 1
 538 549 l 2
 542 547 540 544 541 542 c 0
 550 514 552 525 552 455 c 2
 552 414 l 1
 552 376 l 1
 598 376 l 2x8940
 707 376 824 381 918 381 c 0
 973 381 1035 370 1058 370 c 0
 1083 370 1100 363 1100 359 c 2
 1100 351 l 1
 1070 351 l 1x1940
 1041 355 l 1
 1041 337 l 2
 1041 326 1035 313 1028 307 c 2
 1018 297 l 1
 859 297 l 2x4940
 772 297 668 282 627 282 c 2
 553 282 l 1
 553 153 l 1
 553 23 l 1
 536 13 l 2
 528 7 519 4 510 4 c 0
 499 4 487 10 478 19 c 2x8880
EndSplineSet
Validated: 1
EndChar

StartChar: y
Encoding: 121 121 51
Width: 796
VWidth: 1000
GlyphClass: 1
Flags: HMW
HStem: 755 22G<424 424>
LayerCount: 2
Fore
SplineSet
360 -106 m 0
 352 -100 325 -58 297 -12 c 0
 206 142 146 234 134 244 c 0
 127 250 120 268 117 283 c 2
 111 310 l 1
 122 307 l 2
 132 304 294 117 326 72 c 0
 333 63 340 58 342 60 c 0
 344 62 350 112 354 168 c 0
 358 224 370 377 380 508 c 2
 396 746 l 1
 410 760 l 1
 424 776 l 1
 449 773 l 1
 474 770 l 1
 536 659 l 2
 661 430 726 320 746 310 c 2
 766 300 l 1
 748 300 l 1
 730 300 l 1
 683 352 l 2
 657 381 603 448 563 502 c 0
 523 556 488 600 485 600 c 0
 482 600 478 590 478 578 c 0
 478 566 467 409 454 233 c 2
 429 -87 l 1
 411 -101 l 2
 390 -119 379 -120 360 -106 c 0
EndSplineSet
Validated: 33
EndChar

StartChar: z
Encoding: 122 122 52
Width: 982
VWidth: 1000
GlyphClass: 1
Flags: HMW
HStem: 128 64 130 48 135 6 373 11<315 320 320 339> 517 23G
LayerCount: 2
Fore
SplineSet
72 -11 m 1x18
 79 3 l 1
 73 10 l 2
 59 24 68 43 128 116 c 0
 162 157 223 231 264 282 c 2
 339 373 l 1
 319 373 l 2
 308 373 236 371 170 372 c 0
 104 373 57 379 55 381 c 0
 53 383 115 384 199 384 c 2
 348 384 l 1
 441 498 l 2
 493 561 536 609 536 606 c 0
 536 603 525 584 512 564 c 0
 487 524 483 517 498 529 c 2
 508 538 l 1
 500 527 l 2
 496 521 490 519 488 520 c 0
 482 523 468 501 470 493 c 0
 471 491 453 466 431 438 c 2
 392 387 l 1
 560 384 l 2
 652 382 718 380 715 378 c 0
 712 376 702 369 616 370 c 0
 530 371 400 374 393 373 c 0
 380 370 314 283 188 94 c 0
 150 37 119 -4 113 -4 c 0
 107 -4 100 -7 94 -7 c 0
 88 -7 81 -11 75 -15 c 2
 64 -24 l 1
 72 -11 l 1x18
945 128 m 0x98
 944 129 834 130 701 130 c 0x58
 566 130 457 132 455 135 c 0
 453 138 462 141 474 141 c 2
 495 141 l 1x38
 490 148 l 1
 483 157 l 1
 504 161 l 2
 529 164 668 174 769 178 c 0x58
 807 180 877 185 923 188 c 0
 969 191 1014 193 1022 191 c 0x98
 1051 184 1052 144 1026 130 c 0x58
 1016 124 949 124 945 128 c 0x98
471 496 m 0
 471 497 475 502 481 506 c 2
 492 515 l 1
 484 504 l 2
 476 494 471 492 471 496 c 0
514 552 m 0
 520 559 528 563 529 563 c 0
 530 563 526 559 520 552 c 0
 514 545 507 540 506 540 c 0
 505 540 508 545 514 552 c 0
538 581 m 0
 544 588 550 593 551 593 c 0
 552 593 549 588 543 581 c 0
 537 574 532 570 531 570 c 0
 530 570 532 574 538 581 c 0
552 601 m 0
 552 602 556 606 562 610 c 2
 572 618 l 1
 564 608 l 2
 556 598 552 597 552 601 c 0
EndSplineSet
Validated: 33
EndChar

StartChar: quotesingle
Encoding: 39 39 53
Width: 290
VWidth: 1000
Flags: W
VStem: 84 191
LayerCount: 2
Fore
SplineSet
206 690 m 1
 191 704 l 1
 178 729 l 2
 167 751 156 768 135 818 c 0
 114 868 85 971 84 979 c 2
 83 999 l 1
 98 980 l 2
 106 970 149 927 163 906 c 0
 177 885 216 844 235 799 c 2
 275 723 l 1
 277 693 l 2
 278 676 225 664 219 680 c 2
 206 690 l 1
EndSplineSet
Validated: 33
EndChar

StartChar: period
Encoding: 46 46 54
Width: 271
Flags: W
HStem: -77 21G<184 197>
VStem: 54 206<-47.8363 23.7072>
LayerCount: 2
Fore
SplineSet
64 39 m 2
 67 57 96 69 126 73 c 2
 163 78 l 2
 178 80 235 79 244 48 c 2
 244 48 260 14 260 -9 c 3
 260 -33 224 -60 224 -60 c 2
 221 -64 210 -77 184 -77 c 2
 184 -77 122 -94 91 -76 c 0
 66 -62 54 -46 54 -15 c 0
 64 39 l 2
EndSplineSet
Validated: 33
EndChar

StartChar: comma
Encoding: 44 44 56
Width: 292
Flags: W
HStem: 53 20G<64.6667 81.1818>
VStem: 65 261
LayerCount: 2
Fore
SplineSet
231 -299 m 1
 211 -282 l 1
 193 -253 l 2
 178 -227 163 -206 134 -145 c 0
 105 -84 66 40 65 49 c 2
 63 73 l 1
 83 51 l 2
 94 39 153 -12 172 -38 c 0
 191 -64 245 -113 271 -168 c 2
 326 -260 l 1
 329 -295 l 2
 331 -315 257 -331 249 -312 c 2
 231 -299 l 1
EndSplineSet
Validated: 33
EndChar

StartChar: exclam
Encoding: 33 33 66
Width: 438
Flags: W
HStem: -53 20G<162 251> 89 21G<211 253.5>
VStem: 226 72<313.365 448.625>
LayerCount: 2
Fore
SplineSet
211 109 m 1
 197 130 l 1
 206 170 l 2
 222 240 230 388 226 551 c 2
 222 709 l 1
 247 780 l 2
 261 819 275 862 278 876 c 2
 284 901 l 1
 289 888 l 2
 291 881 299 872 305 867 c 2
 317 859 l 1
 321 779 l 1
 326 699 l 1
 311 604 l 2
 297 512 293 413 298 210 c 2
 301 111 l 1
 286 100 l 2
 278 94 260 89 247 89 c 2
 224 89 l 1
 211 109 l 1
217 -221 m 0
 180 -217 162 -200 155 -166 c 0
 152 -151 138 -128 124 -113 c 2
 98 -87 l 1
 104 -69 l 2
 107 -59 116 -52 125 -52 c 0
 134 -52 151 -47 162 -42 c 2
 182 -33 l 1
 251 -43 l 1
 319 -53 l 1
 351 -73 l 1
 383 -94 l 1
 383 -119 l 1
 383 -144 l 1
 357 -158 l 2
 342 -166 322 -181 311 -191 c 0
 289 -212 263 -227 253 -225 c 0
 249 -224 233 -223 217 -221 c 0
EndSplineSet
Validated: 33
EndChar

StartChar: question
Encoding: 63 63 67
Width: 616
Flags: W
HStem: -45 20G<275 407> 59 21G<269.8 312.172>
LayerCount: 2
Fore
SplineSet
179 777 m 1
 526 516 555 493 555 493 c 1
 341 117 l 1
 297 59 l 1
 263 84 l 1
 312 172 l 1
 390 387 l 1
 416 493 l 1
 416 493 333 572 324 584 c 0
 315 596 120 768 120 768 c 1
 89 816 l 1
 179 777 l 1
275 -42 m 1
 343 -25 l 1
 407 -34 l 1
 397 -106 l 1
 397 -106 334 -145 314 -141 c 0
 294 -137 255 -106 255 -106 c 1
 275 -42 l 1
EndSplineSet
Validated: 33
EndChar
